Interview with the Vampire: The Vampire Chronicles
 
http://www.imdb.com/title/tt0110148/

Source: Interview.with.the.Vampire.2008.720p.BluRay.x264-ESiR Thanks!

Subs: Arabic, Brazilian, Croatian, Danish, Dutch, English, Farsi-Persian, Finnish, French, Greek, Hebrew, Polish, Portuguese, Romanian, Slovenian, Spanish, Swedish and Vietnamese.

Sample and Screens included.

General
Complete name                            : Interview with the Vampire-720p MP4 AAC x264 BRRip 1994-CC.mp4
Format                                   : MPEG-4
Format profile                           : Base Media
Codec ID                                 : isom
File size                                : 3.08 GiB
Duration                                 : 2h 2mn
Overall bit rate mode                    : Variable
Overall bit rate                         : 3 598 Kbps
Encoded date                             : UTC 2012-12-18 11:51:34

Video
ID                                       : 1
Format                                   : AVC
Format/Info                              : Advanced Video Codec
Format profile                           : High@L4.1
Format settings, CABAC                   : Yes
Format settings, ReFrames                : 5 frames
Codec ID                                 : avc1
Codec ID/Info                            : Advanced Video Coding
Duration                                 : 2h 2mn
Bit rate                                 : 3 228 Kbps
Maximum bit rate                         : 12.8 Mbps
Width                                    : 1 280 pixels
Height                                   : 720 pixels
Display aspect ratio                     : 16:9
Frame rate mode                          : Variable
Frame rate                               : 23.976 fps
Minimum frame rate                       : 19.048 fps
Maximum frame rate                       : 24.390 fps
Color space                              : YUV
Chroma subsampling                       : 4:2:0
Bit depth                                : 8 bits
Scan type                                : Progressive
Bits/(Pixel*Frame)                       : 0.146
Stream size                              : 2.75 GiB (89%)
Writing library                          : x264 core 112

Audio
ID                                       : 2
Format                                   : AAC
Format/Info                              : Advanced Audio Codec
Format profile                           : LC
Codec ID                                 : 40
Duration                                 : 2h 2mn
Bit rate mode                            : Variable
Bit rate                                 : 384 Kbps
Maximum bit rate                         : 607 Kbps
Channel(s)                               : 6 channels
Channel positions                        : Front: L C R, Side: L R, LFE
Sampling rate                            : 48.0 KHz
Compression mode                         : Lossy
Delay relative to video                  : 83ms
Stream size                              : 337 MiB (11%)
Language                                 : English

Enjoy...

Requested by Alorati 

Coming soon: Apocalypse Hitler, S.Darko, Domino, Mercury Rising, Twilight Samurai and more..